<?xml version="1.0" encoding="utf-8"?>
<!-- Generator: Adobe Illustrator 21.1.0, SVG Export Plug-In . SVG Version: 6.00 Build 0)  -->
<svg version="1.1" id="Слой_1" xmlns="http://www.w3.org/2000/svg" xmlns:xlink="http://www.w3.org/1999/xlink" x="0px" y="0px"
	 viewBox="0 0 32 37" style="enable-background:new 0 0 32 37;" xml:space="preserve">
<style type="text/css">
	.st0{fill:#FFFFFF;}
</style>
<path id="Р" class="st0" d="M1.6,15.3h3.7V0.4h8.9c2.4-0.1,4.9,0.1,7.3,0.5c3.6,1,6.4,4.3,6.4,9.5c0,5.9-3.7,9.1-7.1,9.8
	c-2.1,0.4-4.2,0.5-6.3,0.5h-3v2.8h15V29h-15v4H5.3v-4H1.6v-5.5h3.7v-2.8H1.6C1.6,20.7,1.6,15.3,1.6,15.3z M11.5,6v9.2h2.4
	c1.6,0.1,3.1-0.1,4.7-0.5c2.2-0.9,3.3-3.5,2.4-5.8c-0.6-1.4-1.8-2.4-3.3-2.7C16.3,6,14.8,5.9,13.4,6L11.5,6L11.5,6z"/>
</svg>
